<svg width="14" height="10" viewBox="0 0 14 10" fill="none" xmlns="http://www.w3.org/2000/svg">
<path fill-rule="evenodd" clip-rule="evenodd" d="M4.99998 4.99998C6.28665 4.99998 7.33331 3.95331 7.33331 2.66665C7.33331 1.37998 6.28665 0.333313 4.99998 0.333313C3.71331 0.333313 2.66665 1.37998 2.66665 2.66665C2.66665 3.95331 3.71331 4.99998 4.99998 4.99998ZM0.333313 8.49998C0.333313 6.94665 3.43998 6.16665 4.99998 6.16665C6.55998 6.16665 9.66665 6.94665 9.66665 8.49998V9.66665H0.333313V8.49998ZM4.99998 7.49998C3.80665 7.49998 2.45331 7.94665 1.89331 8.33331H8.10665C7.54665 7.94665 6.19331 7.49998 4.99998 7.49998ZM5.99998 2.66665C5.99998 2.11331 5.55331 1.66665 4.99998 1.66665C4.44665 1.66665 3.99998 2.11331 3.99998 2.66665C3.99998 3.21998 4.44665 3.66665 4.99998 3.66665C5.55331 3.66665 5.99998 3.21998 5.99998 2.66665ZM9.69331 6.20665C10.4666 6.76665 11 7.51331 11 8.49998V9.66665H13.6666V8.49998C13.6666 7.15331 11.3333 6.38665 9.69331 6.20665ZM11.3333 2.66665C11.3333 3.95331 10.2866 4.99998 8.99998 4.99998C8.63998 4.99998 8.30665 4.91331 7.99998 4.76665C8.41998 4.17331 8.66665 3.44665 8.66665 2.66665C8.66665 1.88665 8.41998 1.15998 7.99998 0.566646C8.30665 0.41998 8.63998 0.333313 8.99998 0.333313C10.2866 0.333313 11.3333 1.37998 11.3333 2.66665Z" fill="#4B7192"/>
</svg>
